# xmcd CD database file
#
# Track frame offsets:
#	150
#	14005
#	28585
#	44735
#	67360
#
# Disc length: 4440 seconds
#
# Revision: 0
# Processed by: cddbd v1.5.1PL0 Copyright (c) Steve Scherf et al.
# Submitted via: CDex 1.51
#
DISCID=4a115605
DTITLE=B-DASH - ハーコー
DYEAR=2004
DGENRE=Punk Rock
TTITLE0=ハーコー
TTITLE1=セパタクロー
TTITLE2=僕の少年
TTITLE3=リミテッドレコード(REMIXED BY CHATANIX)
TTITLE4=Extratrack
EXTD=YEAR: 2004
EXTT0=
EXTT1=
EXTT2=
EXTT3=
EXTT4=
PLAYORDER=
